<svg width="432" height="41" viewBox="0 0 432 41" fill="none" xmlns="http://www.w3.org/2000/svg">
<path d="M36.22 34V12.46H49V15.58H39.7V21.34H48.1V24.43H39.7V30.88H49.18V34H36.22ZM51.662 34L55.562 26.11L51.662 18.25H55.382L58.292 24.73H59.582L62.522 18.25H66.212L62.252 26.08L66.212 34H62.492L59.582 27.55H58.292L55.352 34H51.662ZM77.3013 17.95C79.2813 17.95 80.9613 18.75 82.3413 20.35C83.7413 21.93 84.4413 23.85 84.4413 26.11C84.4413 28.37 83.7313 30.3 82.3113 31.9C80.8913 33.5 79.1813 34.3 77.1813 34.3C75.3613 34.3 73.8613 33.58 72.6813 32.14V40.21H69.2913V18.25H72.4413V20.38C73.0013 19.66 73.7213 19.08 74.6013 18.64C75.5013 18.18 76.4013 17.95 77.3013 17.95ZM80.7513 27.4V24.88C80.7513 23.48 80.4313 22.46 79.7913 21.82C79.1513 21.18 78.1213 20.86 76.7013 20.86C75.3013 20.86 74.2813 21.18 73.6413 21.82C73.0013 22.46 72.6813 23.48 72.6813 24.88V27.4C72.6813 28.8 73.0013 29.82 73.6413 30.46C74.2813 31.1 75.3013 31.42 76.7013 31.42C78.1013 31.42 79.1213 31.1 79.7613 30.46C80.4213 29.82 80.7513 28.8 80.7513 27.4ZM101.64 27.07H90.3304V27.82C90.3304 29.12 90.6404 30.06 91.2604 30.64C91.9004 31.22 92.9204 31.51 94.3204 31.51C95.5204 31.51 96.4004 31.32 96.9604 30.94C97.5404 30.54 97.8704 29.9 97.9504 29.02H101.58C101.1 30.54 100.17 31.8 98.7904 32.8C97.4304 33.8 95.9504 34.3 94.3504 34.3C92.1504 34.3 90.3204 33.56 88.8604 32.08C87.4204 30.6 86.7004 28.69 86.7004 26.35C86.7004 24.01 87.4304 22.03 88.8904 20.41C90.3504 18.77 92.1804 17.95 94.3804 17.95C96.4204 17.95 98.1404 18.71 99.5404 20.23C100.94 21.75 101.64 23.61 101.64 25.81V27.07ZM94.3804 20.68C92.9804 20.68 91.9504 20.96 91.2904 21.52C90.6504 22.08 90.3304 22.97 90.3304 24.19V24.55H97.9804V24.19C97.9804 22.93 97.7004 22.03 97.1404 21.49C96.6004 20.95 95.6804 20.68 94.3804 20.68ZM112.931 17.95C114.531 17.95 115.861 18.54 116.921 19.72C118.001 20.88 118.541 22.36 118.541 24.16V34H115.151V23.98C115.151 22.92 114.871 22.14 114.311 21.64C113.771 21.14 112.901 20.89 111.701 20.89C110.441 20.89 109.521 21.15 108.941 21.67C108.381 22.19 108.101 23.01 108.101 24.13V34H104.711V18.25H107.861V20.53C109.121 18.81 110.811 17.95 112.931 17.95ZM128.349 34.3C126.469 34.3 124.889 33.83 123.609 32.89C122.329 31.95 121.599 30.72 121.419 29.2H124.839C124.899 30.12 125.169 30.75 125.649 31.09C126.149 31.43 127.029 31.6 128.289 31.6C130.469 31.6 131.559 31.01 131.559 29.83V29.23C131.559 28.75 131.389 28.4 131.049 28.18C130.709 27.96 130.129 27.8 129.309 27.7L126.699 27.46C125.239 27.32 124.079 26.86 123.219 26.08C122.379 25.3 121.959 24.29 121.959 23.05C121.959 21.67 122.569 20.48 123.789 19.48C125.029 18.46 126.479 17.95 128.139 17.95C129.839 17.95 131.299 18.41 132.519 19.33C133.759 20.25 134.479 21.47 134.679 22.99H131.229C131.209 22.11 130.969 21.5 130.509 21.16C130.069 20.82 129.289 20.65 128.169 20.65C127.169 20.65 126.429 20.79 125.949 21.07C125.489 21.33 125.259 21.76 125.259 22.36V22.9C125.259 23.36 125.409 23.71 125.709 23.95C126.029 24.19 126.549 24.35 127.269 24.43L130.179 24.73C131.639 24.89 132.789 25.36 133.629 26.14C134.469 26.9 134.889 27.88 134.889 29.08C134.889 30.52 134.259 31.75 132.999 32.77C131.739 33.79 130.189 34.3 128.349 34.3ZM151.826 27.07H140.516V27.82C140.516 29.12 140.826 30.06 141.446 30.64C142.086 31.22 143.106 31.51 144.506 31.51C145.706 31.51 146.586 31.32 147.146 30.94C147.726 30.54 148.056 29.9 148.136 29.02H151.766C151.286 30.54 150.356 31.8 148.976 32.8C147.616 33.8 146.136 34.3 144.536 34.3C142.336 34.3 140.506 33.56 139.046 32.08C137.606 30.6 136.886 28.69 136.886 26.35C136.886 24.01 137.616 22.03 139.076 20.41C140.536 18.77 142.366 17.95 144.566 17.95C146.606 17.95 148.326 18.71 149.726 20.23C151.126 21.75 151.826 23.61 151.826 25.81V27.07ZM144.566 20.68C143.166 20.68 142.136 20.96 141.476 21.52C140.836 22.08 140.516 22.97 140.516 24.19V24.55H148.166V24.19C148.166 22.93 147.886 22.03 147.326 21.49C146.786 20.95 145.866 20.68 144.566 20.68ZM170.829 34.3C168.189 34.3 165.969 33.24 164.169 31.12C162.389 28.98 161.499 26.35 161.499 23.23C161.499 20.11 162.389 17.49 164.169 15.37C165.969 13.23 168.189 12.16 170.829 12.16C173.089 12.16 175.089 13 176.829 14.68C178.589 16.36 179.599 18.42 179.859 20.86H175.959C175.839 17.16 174.119 15.31 170.799 15.31C168.919 15.31 167.529 15.83 166.629 16.87C165.729 17.89 165.279 19.49 165.279 21.67V24.82C165.279 26.98 165.729 28.58 166.629 29.62C167.549 30.64 168.939 31.15 170.799 31.15C174.159 31.15 175.879 29.3 175.959 25.6H179.859C179.599 28.04 178.589 30.1 176.829 31.78C175.089 33.46 173.089 34.3 170.829 34.3ZM182.758 34V12.46H186.148V34H182.758ZM196.35 17.95C198.17 17.95 199.65 18.49 200.79 19.57C201.95 20.63 202.53 22.01 202.53 23.71V34H199.44V32.44C198.38 33.68 196.9 34.3 195 34.3C193.4 34.3 192.04 33.83 190.92 32.89C189.82 31.95 189.27 30.78 189.27 29.38C189.27 28.02 189.84 26.93 190.98 26.11C192.14 25.27 193.67 24.85 195.57 24.85H199.23V23.47C199.23 22.43 199.02 21.71 198.6 21.31C198.18 20.89 197.38 20.68 196.2 20.68C195 20.68 194.17 20.89 193.71 21.31C193.27 21.73 193.03 22.48 192.99 23.56H189.69C189.91 21.98 190.63 20.65 191.85 19.57C193.09 18.49 194.59 17.95 196.35 17.95ZM195.69 31.63C196.93 31.63 197.83 31.43 198.39 31.03C198.95 30.61 199.23 29.94 199.23 29.02V27.37H194.82C193.44 27.37 192.75 27.9 192.75 28.96V29.8C192.75 30.44 192.98 30.91 193.44 31.21C193.9 31.49 194.65 31.63 195.69 31.63ZM207.993 16.48C207.293 16.48 206.723 16.27 206.283 15.85C205.843 15.41 205.623 14.85 205.623 14.17C205.623 13.49 205.843 12.94 206.283 12.52C206.723 12.08 207.293 11.86 207.993 11.86C208.673 11.86 209.233 12.08 209.673 12.52C210.113 12.94 210.333 13.49 210.333 14.17C210.333 14.85 210.113 15.41 209.673 15.85C209.233 16.27 208.673 16.48 207.993 16.48ZM206.313 34V18.25H209.703V34H206.313ZM231.485 17.95C233.025 17.95 234.285 18.54 235.265 19.72C236.265 20.88 236.765 22.36 236.765 24.16V34H233.375V23.98C233.375 22.9 233.125 22.12 232.625 21.64C232.145 21.14 231.375 20.89 230.315 20.89C229.155 20.89 228.305 21.15 227.765 21.67C227.225 22.19 226.955 23.01 226.955 24.13V34H223.565V23.98C223.565 22.9 223.315 22.12 222.815 21.64C222.315 21.14 221.535 20.89 220.475 20.89C219.315 20.89 218.465 21.15 217.925 21.67C217.385 22.19 217.115 23.01 217.115 24.13V34H213.725V18.25H216.875V20.53C218.055 18.81 219.645 17.95 221.645 17.95C222.705 17.95 223.655 18.22 224.495 18.76C225.335 19.28 225.965 20 226.385 20.92C227.605 18.94 229.305 17.95 231.485 17.95ZM248.154 34V12.46H255.504L259.044 30.88H260.064L263.724 12.46H271.104V34H267.804V15.58H266.424L262.554 34H256.434L252.714 15.58H251.334V34H248.154ZM281.516 17.95C283.336 17.95 284.816 18.49 285.956 19.57C287.116 20.63 287.696 22.01 287.696 23.71V34H284.606V32.44C283.546 33.68 282.066 34.3 280.166 34.3C278.566 34.3 277.206 33.83 276.086 32.89C274.986 31.95 274.436 30.78 274.436 29.38C274.436 28.02 275.006 26.93 276.146 26.11C277.306 25.27 278.836 24.85 280.736 24.85H284.396V23.47C284.396 22.43 284.186 21.71 283.766 21.31C283.346 20.89 282.546 20.68 281.366 20.68C280.166 20.68 279.336 20.89 278.876 21.31C278.436 21.73 278.196 22.48 278.156 23.56H274.856C275.076 21.98 275.796 20.65 277.016 19.57C278.256 18.49 279.756 17.95 281.516 17.95ZM280.856 31.63C282.096 31.63 282.996 31.43 283.556 31.03C284.116 30.61 284.396 29.94 284.396 29.02V27.37H279.986C278.606 27.37 277.916 27.9 277.916 28.96V29.8C277.916 30.44 278.146 30.91 278.606 31.21C279.066 31.49 279.816 31.63 280.856 31.63ZM299.699 17.95C301.299 17.95 302.629 18.54 303.689 19.72C304.769 20.88 305.309 22.36 305.309 24.16V34H301.919V23.98C301.919 22.92 301.639 22.14 301.079 21.64C300.539 21.14 299.669 20.89 298.469 20.89C297.209 20.89 296.289 21.15 295.709 21.67C295.149 22.19 294.869 23.01 294.869 24.13V34H291.479V18.25H294.629V20.53C295.889 18.81 297.579 17.95 299.699 17.95ZM315.266 17.95C317.086 17.95 318.566 18.49 319.706 19.57C320.866 20.63 321.446 22.01 321.446 23.71V34H318.356V32.44C317.296 33.68 315.816 34.3 313.916 34.3C312.316 34.3 310.956 33.83 309.836 32.89C308.736 31.95 308.186 30.78 308.186 29.38C308.186 28.02 308.756 26.93 309.896 26.11C311.056 25.27 312.586 24.85 314.486 24.85H318.146V23.47C318.146 22.43 317.936 21.71 317.516 21.31C317.096 20.89 316.296 20.68 315.116 20.68C313.916 20.68 313.086 20.89 312.626 21.31C312.186 21.73 311.946 22.48 311.906 23.56H308.606C308.826 21.98 309.546 20.65 310.766 19.57C312.006 18.49 313.506 17.95 315.266 17.95ZM314.606 31.63C315.846 31.63 316.746 31.43 317.306 31.03C317.866 30.61 318.146 29.94 318.146 29.02V27.37H313.736C312.356 27.37 311.666 27.9 311.666 28.96V29.8C311.666 30.44 311.896 30.91 312.356 31.21C312.816 31.49 313.566 31.63 314.606 31.63ZM336.179 18.25H339.359V34.24C339.359 36 338.679 37.49 337.319 38.71C335.959 39.95 334.249 40.57 332.189 40.57C330.189 40.57 328.489 39.98 327.089 38.8C325.709 37.62 324.949 36.18 324.809 34.48H328.259C328.259 35.7 328.539 36.54 329.099 37C329.659 37.46 330.669 37.69 332.129 37.69C333.509 37.69 334.489 37.43 335.069 36.91C335.669 36.39 335.969 35.49 335.969 34.21V31.33C334.709 32.65 333.209 33.31 331.469 33.31C329.449 33.31 327.769 32.58 326.429 31.12C325.089 29.66 324.419 27.83 324.419 25.63C324.419 23.41 325.079 21.58 326.399 20.14C327.719 18.7 329.389 17.98 331.409 17.98C332.329 17.98 333.229 18.19 334.109 18.61C334.989 19.03 335.679 19.57 336.179 20.23V18.25ZM329.039 29.47C329.679 30.07 330.679 30.37 332.039 30.37C333.399 30.37 334.389 30.08 335.009 29.5C335.649 28.9 335.969 27.95 335.969 26.65V24.49C335.969 23.23 335.649 22.31 335.009 21.73C334.389 21.15 333.399 20.86 332.039 20.86C330.679 20.86 329.679 21.15 329.039 21.73C328.399 22.31 328.079 23.23 328.079 24.49V26.65C328.079 27.93 328.399 28.87 329.039 29.47ZM357.373 27.07H346.063V27.82C346.063 29.12 346.373 30.06 346.993 30.64C347.633 31.22 348.653 31.51 350.053 31.51C351.253 31.51 352.133 31.32 352.693 30.94C353.273 30.54 353.603 29.9 353.683 29.02H357.313C356.833 30.54 355.903 31.8 354.523 32.8C353.163 33.8 351.683 34.3 350.083 34.3C347.883 34.3 346.053 33.56 344.593 32.08C343.153 30.6 342.433 28.69 342.433 26.35C342.433 24.01 343.163 22.03 344.623 20.41C346.083 18.77 347.913 17.95 350.113 17.95C352.153 17.95 353.873 18.71 355.273 20.23C356.673 21.75 357.373 23.61 357.373 25.81V27.07ZM350.113 20.68C348.713 20.68 347.683 20.96 347.023 21.52C346.383 22.08 346.063 22.97 346.063 24.19V24.55H353.713V24.19C353.713 22.93 353.433 22.03 352.873 21.49C352.333 20.95 351.413 20.68 350.113 20.68ZM378.204 17.95C379.744 17.95 381.004 18.54 381.984 19.72C382.984 20.88 383.484 22.36 383.484 24.16V34H380.094V23.98C380.094 22.9 379.844 22.12 379.344 21.64C378.864 21.14 378.094 20.89 377.034 20.89C375.874 20.89 375.024 21.15 374.484 21.67C373.944 22.19 373.674 23.01 373.674 24.13V34H370.284V23.98C370.284 22.9 370.034 22.12 369.534 21.64C369.034 21.14 368.254 20.89 367.194 20.89C366.034 20.89 365.184 21.15 364.644 21.67C364.104 22.19 363.834 23.01 363.834 24.13V34H360.444V18.25H363.594V20.53C364.774 18.81 366.364 17.95 368.364 17.95C369.424 17.95 370.374 18.22 371.214 18.76C372.054 19.28 372.684 20 373.104 20.92C374.324 18.94 376.024 17.95 378.204 17.95ZM401.23 27.07H389.92V27.82C389.92 29.12 390.23 30.06 390.85 30.64C391.49 31.22 392.51 31.51 393.91 31.51C395.11 31.51 395.99 31.32 396.55 30.94C397.13 30.54 397.46 29.9 397.54 29.02H401.17C400.69 30.54 399.76 31.8 398.38 32.8C397.02 33.8 395.54 34.3 393.94 34.3C391.74 34.3 389.91 33.56 388.45 32.08C387.01 30.6 386.29 28.69 386.29 26.35C386.29 24.01 387.02 22.03 388.48 20.41C389.94 18.77 391.77 17.95 393.97 17.95C396.01 17.95 397.73 18.71 399.13 20.23C400.53 21.75 401.23 23.61 401.23 25.81V27.07ZM393.97 20.68C392.57 20.68 391.54 20.96 390.88 21.52C390.24 22.08 389.92 22.97 389.92 24.19V24.55H397.57V24.19C397.57 22.93 397.29 22.03 396.73 21.49C396.19 20.95 395.27 20.68 393.97 20.68ZM412.521 17.95C414.121 17.95 415.451 18.54 416.511 19.72C417.591 20.88 418.131 22.36 418.131 24.16V34H414.741V23.98C414.741 22.92 414.461 22.14 413.901 21.64C413.361 21.14 412.491 20.89 411.291 20.89C410.031 20.89 409.111 21.15 408.531 21.67C407.971 22.19 407.691 23.01 407.691 24.13V34H404.301V18.25H407.451V20.53C408.711 18.81 410.401 17.95 412.521 17.95ZM428.365 34.15C426.805 34.15 425.565 33.72 424.645 32.86C423.725 32 423.265 30.84 423.265 29.38V21.07H419.995V18.25H423.265V12.46H426.625V18.25H430.885V21.07H426.625V29.56C426.625 30.58 427.145 31.09 428.185 31.09H430.585V34.15H428.365Z" fill="#F8F8F8"/>
<mask id="path-2-outside-1_7118_29295" maskUnits="userSpaceOnUse" x="0" y="3" width="32" height="38" fill="black">
<rect fill="white" y="3" width="32" height="38"/>
<path fill-rule="evenodd" clip-rule="evenodd" d="M23.4509 26.8502C22.8009 26.2 21.9455 25.7952 21.0306 25.705C20.1156 25.6146 19.1976 25.8443 18.433 26.355C17.6684 26.8656 17.1046 27.6256 16.8376 28.5054C16.5705 29.3852 16.6168 30.3303 16.9686 31.1797C17.3203 32.0291 17.9557 32.7304 18.7666 33.1638C19.5774 33.5973 20.5135 33.7362 21.4152 33.5569C22.317 33.3777 23.1287 32.8912 23.712 32.1806C24.2954 31.4699 24.6142 30.5789 24.6142 29.6596C24.615 29.1378 24.5126 28.621 24.3129 28.1388C24.1133 27.6567 23.8203 27.2188 23.4509 26.8502ZM18.6352 30.0944C18.5519 30.0274 18.4979 29.9306 18.4849 29.8245C18.4718 29.7184 18.5006 29.6114 18.5653 29.5262C18.6299 29.4411 18.7252 29.3845 18.8309 29.3685C18.9366 29.3525 19.0444 29.3784 19.1313 29.4407L20.319 30.3428L22.0792 28.1495C22.112 28.1047 22.1537 28.0671 22.2015 28.0389C22.2493 28.0106 22.3023 27.9924 22.3574 27.9852C22.4125 27.978 22.4684 27.9821 22.5219 27.9971C22.5753 28.0121 22.6252 28.0379 22.6684 28.0726C22.7117 28.1075 22.7474 28.1507 22.7735 28.1998C22.7996 28.2487 22.8155 28.3025 22.8203 28.3578C22.825 28.4132 22.8185 28.4689 22.8012 28.5216C22.7838 28.5744 22.7559 28.623 22.7192 28.6647L20.709 31.1696C20.6422 31.2529 20.5455 31.3069 20.4394 31.3199C20.3334 31.333 20.2265 31.3042 20.1414 31.2396L18.6352 30.0944ZM9.5944 32.4677C9.53919 32.4694 9.48419 32.46 9.43267 32.4401C9.38115 32.4201 9.33416 32.39 9.2945 32.3516C9.25483 32.3131 9.22329 32.2671 9.20176 32.2162C9.18022 32.1654 9.16912 32.1107 9.16912 32.0555C9.16912 32.0002 9.18022 31.9456 9.20176 31.8947C9.22329 31.8437 9.25483 31.7977 9.2945 31.7594C9.33416 31.7209 9.38115 31.6907 9.43267 31.6708C9.48419 31.6509 9.53919 31.6415 9.5944 31.6433H16.2718C15.9897 31.02 15.8438 30.3437 15.8438 29.6596C15.8438 28.9754 15.9897 28.2991 16.2718 27.6758H9.5956C9.54039 27.6775 9.48539 27.6682 9.43387 27.6483C9.38235 27.6283 9.33536 27.5982 9.2957 27.5597C9.25603 27.5213 9.22449 27.4753 9.20296 27.4244C9.18142 27.3736 9.17032 27.3189 9.17032 27.2636C9.17032 27.2084 9.18142 27.1537 9.20296 27.1029C9.22449 27.052 9.25603 27.0059 9.2957 26.9675C9.33536 26.9291 9.38235 26.8989 9.43387 26.879C9.48539 26.8591 9.54039 26.8498 9.5956 26.8514H16.7515C17.3452 26.0296 18.1841 25.4171 19.1476 25.1018C20.1112 24.7866 21.15 24.7848 22.1146 25.0968C23.0793 25.4089 23.9202 26.0185 24.5167 26.8383C25.1132 27.6581 25.4345 28.6457 25.4345 29.6596C25.4345 30.6734 25.1132 31.661 24.5167 32.4808C23.9202 33.3006 23.0793 33.9103 22.1146 34.2222C21.15 34.5343 20.1112 34.5325 19.1476 34.2173C18.1841 33.9019 17.3452 33.2895 16.7515 32.4677H9.5944ZM7.28259 14.542C6.77821 14.5418 6.29186 14.3545 5.91761 14.0164C5.54335 13.6783 5.30779 13.2134 5.25648 12.7117C5.20517 12.2099 5.34176 11.707 5.63983 11.3002C5.9379 10.8933 6.37627 10.6114 6.87015 10.5091V9.74465C6.86843 9.68944 6.87782 9.63445 6.89776 9.58294C6.9177 9.53141 6.94779 9.48443 6.98624 9.44476C7.02469 9.40511 7.07072 9.37356 7.12159 9.35203C7.17246 9.3305 7.22714 9.31939 7.28239 9.31939C7.33763 9.31939 7.39231 9.3305 7.44318 9.35203C7.49405 9.37356 7.54008 9.40511 7.57853 9.44476C7.61698 9.48443 7.64707 9.53141 7.66701 9.58294C7.68696 9.63445 7.69635 9.68944 7.69463 9.74465V10.5091C8.15359 10.6044 8.56573 10.8548 8.86174 11.2183C9.15775 11.5818 9.31957 12.0361 9.31998 12.5048C9.31664 12.6119 9.27174 12.7135 9.1948 12.788C9.11785 12.8626 9.0149 12.9044 8.90774 12.9044C8.80058 12.9044 8.69762 12.8626 8.62068 12.788C8.54373 12.7135 8.49884 12.6119 8.4955 12.5048C8.4955 12.2649 8.42436 12.0304 8.29109 11.831C8.15781 11.6315 7.96838 11.4761 7.74675 11.3843C7.52512 11.2925 7.28124 11.2684 7.04596 11.3152C6.81068 11.362 6.59456 11.4775 6.42493 11.6472C6.2553 11.8168 6.13978 12.0329 6.09298 12.2682C6.04618 12.5034 6.0702 12.7473 6.162 12.9689C6.2538 13.1906 6.40927 13.3799 6.60873 13.5132C6.80819 13.6465 7.04269 13.7176 7.28259 13.7176C7.78716 13.7175 8.27383 13.9046 8.64835 14.2428C9.02288 14.5808 9.2586 15.0459 9.30989 15.5479C9.36118 16.0498 9.22437 16.5529 8.92597 16.9598C8.62757 17.3666 8.1888 17.6483 7.69463 17.7502V18.5151C7.69129 18.6222 7.64639 18.7238 7.56945 18.7984C7.4925 18.8729 7.38955 18.9146 7.28239 18.9146C7.17523 18.9146 7.07227 18.8729 6.99533 18.7984C6.91838 18.7238 6.87348 18.6222 6.87015 18.5151V17.7502C6.41132 17.6548 5.99932 17.4044 5.7034 17.0411C5.40748 16.6777 5.24568 16.2236 5.2452 15.7549C5.24348 15.6997 5.25287 15.6448 5.27281 15.5932C5.29275 15.5417 5.32284 15.4947 5.36129 15.4551C5.39974 15.4154 5.44577 15.3839 5.49664 15.3623C5.54751 15.3408 5.60219 15.3296 5.65743 15.3296C5.71268 15.3296 5.76736 15.3408 5.81823 15.3623C5.8691 15.3839 5.91513 15.4154 5.95358 15.4551C5.99203 15.4947 6.02212 15.5417 6.04206 15.5932C6.062 15.6448 6.07139 15.6997 6.06967 15.7549C6.06967 15.9949 6.14081 16.2293 6.27409 16.4288C6.40736 16.6282 6.59679 16.7837 6.81842 16.8755C7.04006 16.9673 7.28393 16.9913 7.51921 16.9445C7.7545 16.8977 7.97062 16.7821 8.14025 16.6126C8.30987 16.4429 8.42539 16.2268 8.47219 15.9916C8.51899 15.7562 8.49497 15.5125 8.40317 15.2908C8.31137 15.0692 8.15591 14.8798 7.95644 14.7464C7.75698 14.6132 7.52248 14.542 7.28259 14.542ZM6.71773 21.8464H5.3048V23.2592H6.71773V21.8464ZM4.89276 21.0219H7.13017C7.18428 21.0219 7.23786 21.0326 7.28785 21.0533C7.33784 21.074 7.38327 21.1044 7.42153 21.1426C7.45979 21.1809 7.49014 21.2263 7.51085 21.2763C7.53155 21.3263 7.54221 21.3799 7.54221 21.434V23.6713C7.54221 23.7806 7.49881 23.8854 7.42155 23.9628C7.34429 24.0401 7.23949 24.0836 7.13017 24.0837H4.89276C4.78338 24.0837 4.67847 24.0403 4.60113 23.9629C4.52378 23.8856 4.48033 23.7806 4.48033 23.6713V21.434C4.48033 21.3798 4.491 21.3262 4.51173 21.2762C4.53246 21.2262 4.56285 21.1808 4.60115 21.1425C4.63945 21.1043 4.68492 21.0739 4.73496 21.0532C4.785 21.0325 4.83862 21.0219 4.89276 21.0219ZM9.5956 22.8837C9.54039 22.8854 9.48539 22.8759 9.43387 22.856C9.38235 22.8361 9.33536 22.8061 9.2957 22.7676C9.25603 22.7291 9.22449 22.6831 9.20296 22.6322C9.18142 22.5814 9.17032 22.5267 9.17032 22.4714C9.17032 22.4161 9.18142 22.3615 9.20296 22.3106C9.22449 22.2598 9.25603 22.2137 9.2957 22.1753C9.33536 22.1368 9.38235 22.1068 9.43387 22.0868C9.48539 22.0668 9.54039 22.0575 9.5956 22.0592H21.9088C21.964 22.0575 22.019 22.0668 22.0705 22.0868C22.122 22.1068 22.169 22.1368 22.2087 22.1753C22.2483 22.2137 22.2799 22.2598 22.3014 22.3106C22.3229 22.3615 22.334 22.4161 22.334 22.4714C22.334 22.5267 22.3229 22.5814 22.3014 22.6322C22.2799 22.6831 22.2483 22.7291 22.2087 22.7676C22.169 22.8061 22.122 22.8361 22.0705 22.856C22.019 22.8759 21.964 22.8854 21.9088 22.8837H9.5956ZM6.71773 26.6383H5.3048V28.051H6.71773V26.6383ZM4.89276 25.8137H7.13017C7.23945 25.8137 7.34426 25.8572 7.42153 25.9345C7.4988 26.0117 7.54221 26.1165 7.54221 26.2258V28.4635C7.54221 28.5728 7.4988 28.6775 7.42153 28.7548C7.34426 28.8321 7.23945 28.8755 7.13017 28.8755H4.89276C4.83862 28.8755 4.785 28.865 4.73496 28.8443C4.68492 28.8236 4.63945 28.7932 4.60115 28.7549C4.56285 28.7167 4.53246 28.6712 4.51173 28.6213C4.491 28.5712 4.48033 28.5177 4.48033 28.4635V26.2258C4.48033 26.1716 4.491 26.1181 4.51173 26.068C4.53246 26.018 4.56285 25.9726 4.60115 25.9343C4.63945 25.8961 4.68492 25.8657 4.73496 25.845C4.785 25.8243 4.83862 25.8137 4.89276 25.8137ZM6.71773 31.4301H5.3048V32.8413H6.71773V31.4301ZM4.89276 30.6056H7.13017C7.23949 30.6057 7.34429 30.6492 7.42155 30.7265C7.49881 30.8039 7.54221 30.9086 7.54221 31.018V33.2553C7.54221 33.3646 7.4988 33.4694 7.42153 33.5467C7.34426 33.6239 7.23945 33.6674 7.13017 33.6674H4.89276C4.83862 33.6674 4.785 33.6568 4.73496 33.6361C4.68492 33.6154 4.63945 33.585 4.60115 33.5468C4.56285 33.5085 4.53246 33.4631 4.51173 33.4131C4.491 33.3631 4.48033 33.3095 4.48033 33.2553V31.018C4.48033 30.9086 4.52378 30.8037 4.60113 30.7264C4.67847 30.649 4.78338 30.6056 4.89276 30.6056ZM12.3551 14.6049C12.2479 14.6015 12.1463 14.5567 12.0718 14.4797C11.9972 14.4028 11.9555 14.2998 11.9555 14.1926C11.9555 14.0855 11.9972 13.9826 12.0718 13.9056C12.1463 13.8287 12.2479 13.7838 12.3551 13.7804H21.9088C21.964 13.7787 22.019 13.7881 22.0705 13.8081C22.122 13.828 22.169 13.858 22.2087 13.8965C22.2483 13.935 22.2799 13.981 22.3014 14.0318C22.3229 14.0827 22.334 14.1374 22.334 14.1926C22.334 14.2478 22.3229 14.3025 22.3014 14.3535C22.2799 14.4043 22.2483 14.4503 22.2087 14.4888C22.169 14.5272 22.122 14.5573 22.0705 14.5772C22.019 14.5972 21.964 14.6066 21.9088 14.6049H12.3551ZM12.3551 12.1615C12.2479 12.1583 12.1463 12.1134 12.0718 12.0364C11.9972 11.9595 11.9555 11.8565 11.9555 11.7493C11.9555 11.6422 11.9972 11.5392 12.0718 11.4623C12.1463 11.3854 12.2479 11.3405 12.3551 11.3371H21.9088C21.964 11.3354 22.019 11.3448 22.0705 11.3647C22.122 11.3847 22.169 11.4148 22.2087 11.4532C22.2483 11.4917 22.2799 11.5377 22.3014 11.5886C22.3229 11.6394 22.334 11.6941 22.334 11.7493C22.334 11.8046 22.3229 11.8593 22.3014 11.9101C22.2799 11.9609 22.2483 12.0071 22.2087 12.0454C22.169 12.0839 22.122 12.1141 22.0705 12.134C22.019 12.1539 21.964 12.1633 21.9088 12.1615H12.3551ZM12.3551 17.0482C12.2479 17.0448 12.1463 16.9999 12.0718 16.923C11.9972 16.846 11.9555 16.7431 11.9555 16.636C11.9555 16.5288 11.9972 16.4258 12.0718 16.3489C12.1463 16.2719 12.2479 16.2271 12.3551 16.2238H21.9088C21.964 16.222 22.019 16.2314 22.0705 16.2514C22.122 16.2713 22.169 16.3014 22.2087 16.3398C22.2483 16.3783 22.2799 16.4243 22.3014 16.4751C22.3229 16.5261 22.334 16.5808 22.334 16.636C22.334 16.6912 22.3229 16.7459 22.3014 16.7968C22.2799 16.8476 22.2483 16.8936 22.2087 16.9321C22.169 16.9706 22.122 17.0006 22.0705 17.0205C22.019 17.0405 21.964 17.0499 21.9088 17.0482H12.3551ZM28.7754 4.82604C28.4051 4.8273 28.0503 4.97496 27.7884 5.2368C27.5266 5.49863 27.3789 5.8534 27.3777 6.2237V11.3379H30.1735V6.2237C30.1723 5.85299 30.0243 5.49786 29.7619 5.23596C29.4995 4.97405 29.1441 4.82667 28.7734 4.82604H28.7754ZM26.5532 11.7499V38.6087L24.713 37.6948C24.6542 37.6658 24.5894 37.6513 24.5238 37.6523C24.4583 37.6535 24.394 37.6702 24.3362 37.7011L21.968 38.8131L19.9938 37.7539C19.9285 37.7188 19.855 37.702 19.781 37.7052C19.707 37.7085 19.6352 37.7317 19.5733 37.7723L17.8488 38.8259L15.6086 38.144C15.5266 38.1188 15.4388 38.1202 15.3577 38.1479L13.3344 38.8372L10.7877 37.9383C10.7341 37.9193 10.6772 37.9118 10.6205 37.9159C10.5639 37.9201 10.5087 37.9361 10.4585 37.9627L8.68752 38.8239L6.69933 38.0483C6.59869 38.0089 6.48657 38.0108 6.3873 38.0535L3.81026 39.1668L1.82368 38.912V6.71372C1.82473 6.21334 2.02402 5.73375 2.3779 5.37996C2.73179 5.02616 3.21144 4.82699 3.71185 4.82604H27.0504C26.7287 5.22077 26.553 5.71446 26.5532 6.2237V11.7499ZM28.7754 4C29.365 4.00084 29.9302 4.23537 30.3472 4.6522C30.7642 5.06901 30.9989 5.63413 31 6.2237V11.7499C31 11.8593 30.9565 11.9642 30.8792 12.0416C30.8019 12.1189 30.697 12.1623 30.5876 12.1623H27.3777V39.2728C27.3776 39.3821 27.3341 39.4869 27.2567 39.5642C27.1794 39.6415 27.0745 39.6848 26.9652 39.6848C26.8916 39.685 26.8193 39.6652 26.756 39.6276L24.5246 38.5215L22.1284 39.6464C22.0704 39.6735 22.0069 39.6867 21.9429 39.6849C21.879 39.683 21.8163 39.6663 21.7599 39.6359L19.8122 38.5907L18.1188 39.6236C18.066 39.656 18.0066 39.6759 17.945 39.682C17.8834 39.688 17.8213 39.6802 17.7632 39.6588L15.4946 38.9684L13.4624 39.6624C13.3753 39.6926 13.2806 39.6926 13.1935 39.6624L10.6733 38.7732L8.88394 39.6416C8.83309 39.6662 8.77768 39.68 8.72122 39.6822C8.66476 39.6843 8.60847 39.6748 8.55591 39.6539L6.55772 38.8763L4.03428 39.9664C3.95655 40 3.87032 40.0087 3.78746 39.9912L1.36003 39.6816C1.26068 39.6694 1.16925 39.6211 1.10294 39.5462C1.03663 39.4711 1.00002 39.3745 1 39.2744V6.71372C1.00074 5.99457 1.28663 5.30506 1.79498 4.79635C2.30333 4.28765 2.99267 4.00127 3.71185 4H28.7754Z"/>
</mask>
<path fill-rule="evenodd" clip-rule="evenodd" d="M23.4509 26.8502C22.8009 26.2 21.9455 25.7952 21.0306 25.705C20.1156 25.6146 19.1976 25.8443 18.433 26.355C17.6684 26.8656 17.1046 27.6256 16.8376 28.5054C16.5705 29.3852 16.6168 30.3303 16.9686 31.1797C17.3203 32.0291 17.9557 32.7304 18.7666 33.1638C19.5774 33.5973 20.5135 33.7362 21.4152 33.5569C22.317 33.3777 23.1287 32.8912 23.712 32.1806C24.2954 31.4699 24.6142 30.5789 24.6142 29.6596C24.615 29.1378 24.5126 28.621 24.3129 28.1388C24.1133 27.6567 23.8203 27.2188 23.4509 26.8502ZM18.6352 30.0944C18.5519 30.0274 18.4979 29.9306 18.4849 29.8245C18.4718 29.7184 18.5006 29.6114 18.5653 29.5262C18.6299 29.4411 18.7252 29.3845 18.8309 29.3685C18.9366 29.3525 19.0444 29.3784 19.1313 29.4407L20.319 30.3428L22.0792 28.1495C22.112 28.1047 22.1537 28.0671 22.2015 28.0389C22.2493 28.0106 22.3023 27.9924 22.3574 27.9852C22.4125 27.978 22.4684 27.9821 22.5219 27.9971C22.5753 28.0121 22.6252 28.0379 22.6684 28.0726C22.7117 28.1075 22.7474 28.1507 22.7735 28.1998C22.7996 28.2487 22.8155 28.3025 22.8203 28.3578C22.825 28.4132 22.8185 28.4689 22.8012 28.5216C22.7838 28.5744 22.7559 28.623 22.7192 28.6647L20.709 31.1696C20.6422 31.2529 20.5455 31.3069 20.4394 31.3199C20.3334 31.333 20.2265 31.3042 20.1414 31.2396L18.6352 30.0944ZM9.5944 32.4677C9.53919 32.4694 9.48419 32.46 9.43267 32.4401C9.38115 32.4201 9.33416 32.39 9.2945 32.3516C9.25483 32.3131 9.22329 32.2671 9.20176 32.2162C9.18022 32.1654 9.16912 32.1107 9.16912 32.0555C9.16912 32.0002 9.18022 31.9456 9.20176 31.8947C9.22329 31.8437 9.25483 31.7977 9.2945 31.7594C9.33416 31.7209 9.38115 31.6907 9.43267 31.6708C9.48419 31.6509 9.53919 31.6415 9.5944 31.6433H16.2718C15.9897 31.02 15.8438 30.3437 15.8438 29.6596C15.8438 28.9754 15.9897 28.2991 16.2718 27.6758H9.5956C9.54039 27.6775 9.48539 27.6682 9.43387 27.6483C9.38235 27.6283 9.33536 27.5982 9.2957 27.5597C9.25603 27.5213 9.22449 27.4753 9.20296 27.4244C9.18142 27.3736 9.17032 27.3189 9.17032 27.2636C9.17032 27.2084 9.18142 27.1537 9.20296 27.1029C9.22449 27.052 9.25603 27.0059 9.2957 26.9675C9.33536 26.9291 9.38235 26.8989 9.43387 26.879C9.48539 26.8591 9.54039 26.8498 9.5956 26.8514H16.7515C17.3452 26.0296 18.1841 25.4171 19.1476 25.1018C20.1112 24.7866 21.15 24.7848 22.1146 25.0968C23.0793 25.4089 23.9202 26.0185 24.5167 26.8383C25.1132 27.6581 25.4345 28.6457 25.4345 29.6596C25.4345 30.6734 25.1132 31.661 24.5167 32.4808C23.9202 33.3006 23.0793 33.9103 22.1146 34.2222C21.15 34.5343 20.1112 34.5325 19.1476 34.2173C18.1841 33.9019 17.3452 33.2895 16.7515 32.4677H9.5944ZM7.28259 14.542C6.77821 14.5418 6.29186 14.3545 5.91761 14.0164C5.54335 13.6783 5.30779 13.2134 5.25648 12.7117C5.20517 12.2099 5.34176 11.707 5.63983 11.3002C5.9379 10.8933 6.37627 10.6114 6.87015 10.5091V9.74465C6.86843 9.68944 6.87782 9.63445 6.89776 9.58294C6.9177 9.53141 6.94779 9.48443 6.98624 9.44476C7.02469 9.40511 7.07072 9.37356 7.12159 9.35203C7.17246 9.3305 7.22714 9.31939 7.28239 9.31939C7.33763 9.31939 7.39231 9.3305 7.44318 9.35203C7.49405 9.37356 7.54008 9.40511 7.57853 9.44476C7.61698 9.48443 7.64707 9.53141 7.66701 9.58294C7.68696 9.63445 7.69635 9.68944 7.69463 9.74465V10.5091C8.15359 10.6044 8.56573 10.8548 8.86174 11.2183C9.15775 11.5818 9.31957 12.0361 9.31998 12.5048C9.31664 12.6119 9.27174 12.7135 9.1948 12.788C9.11785 12.8626 9.0149 12.9044 8.90774 12.9044C8.80058 12.9044 8.69762 12.8626 8.62068 12.788C8.54373 12.7135 8.49884 12.6119 8.4955 12.5048C8.4955 12.2649 8.42436 12.0304 8.29109 11.831C8.15781 11.6315 7.96838 11.4761 7.74675 11.3843C7.52512 11.2925 7.28124 11.2684 7.04596 11.3152C6.81068 11.362 6.59456 11.4775 6.42493 11.6472C6.2553 11.8168 6.13978 12.0329 6.09298 12.2682C6.04618 12.5034 6.0702 12.7473 6.162 12.9689C6.2538 13.1906 6.40927 13.3799 6.60873 13.5132C6.80819 13.6465 7.04269 13.7176 7.28259 13.7176C7.78716 13.7175 8.27383 13.9046 8.64835 14.2428C9.02288 14.5808 9.2586 15.0459 9.30989 15.5479C9.36118 16.0498 9.22437 16.5529 8.92597 16.9598C8.62757 17.3666 8.1888 17.6483 7.69463 17.7502V18.5151C7.69129 18.6222 7.64639 18.7238 7.56945 18.7984C7.4925 18.8729 7.38955 18.9146 7.28239 18.9146C7.17523 18.9146 7.07227 18.8729 6.99533 18.7984C6.91838 18.7238 6.87348 18.6222 6.87015 18.5151V17.7502C6.41132 17.6548 5.99932 17.4044 5.7034 17.0411C5.40748 16.6777 5.24568 16.2236 5.2452 15.7549C5.24348 15.6997 5.25287 15.6448 5.27281 15.5932C5.29275 15.5417 5.32284 15.4947 5.36129 15.4551C5.39974 15.4154 5.44577 15.3839 5.49664 15.3623C5.54751 15.3408 5.60219 15.3296 5.65743 15.3296C5.71268 15.3296 5.76736 15.3408 5.81823 15.3623C5.8691 15.3839 5.91513 15.4154 5.95358 15.4551C5.99203 15.4947 6.02212 15.5417 6.04206 15.5932C6.062 15.6448 6.07139 15.6997 6.06967 15.7549C6.06967 15.9949 6.14081 16.2293 6.27409 16.4288C6.40736 16.6282 6.59679 16.7837 6.81842 16.8755C7.04006 16.9673 7.28393 16.9913 7.51921 16.9445C7.7545 16.8977 7.97062 16.7821 8.14025 16.6126C8.30987 16.4429 8.42539 16.2268 8.47219 15.9916C8.51899 15.7562 8.49497 15.5125 8.40317 15.2908C8.31137 15.0692 8.15591 14.8798 7.95644 14.7464C7.75698 14.6132 7.52248 14.542 7.28259 14.542ZM6.71773 21.8464H5.3048V23.2592H6.71773V21.8464ZM4.89276 21.0219H7.13017C7.18428 21.0219 7.23786 21.0326 7.28785 21.0533C7.33784 21.074 7.38327 21.1044 7.42153 21.1426C7.45979 21.1809 7.49014 21.2263 7.51085 21.2763C7.53155 21.3263 7.54221 21.3799 7.54221 21.434V23.6713C7.54221 23.7806 7.49881 23.8854 7.42155 23.9628C7.34429 24.0401 7.23949 24.0836 7.13017 24.0837H4.89276C4.78338 24.0837 4.67847 24.0403 4.60113 23.9629C4.52378 23.8856 4.48033 23.7806 4.48033 23.6713V21.434C4.48033 21.3798 4.491 21.3262 4.51173 21.2762C4.53246 21.2262 4.56285 21.1808 4.60115 21.1425C4.63945 21.1043 4.68492 21.0739 4.73496 21.0532C4.785 21.0325 4.83862 21.0219 4.89276 21.0219ZM9.5956 22.8837C9.54039 22.8854 9.48539 22.8759 9.43387 22.856C9.38235 22.8361 9.33536 22.8061 9.2957 22.7676C9.25603 22.7291 9.22449 22.6831 9.20296 22.6322C9.18142 22.5814 9.17032 22.5267 9.17032 22.4714C9.17032 22.4161 9.18142 22.3615 9.20296 22.3106C9.22449 22.2598 9.25603 22.2137 9.2957 22.1753C9.33536 22.1368 9.38235 22.1068 9.43387 22.0868C9.48539 22.0668 9.54039 22.0575 9.5956 22.0592H21.9088C21.964 22.0575 22.019 22.0668 22.0705 22.0868C22.122 22.1068 22.169 22.1368 22.2087 22.1753C22.2483 22.2137 22.2799 22.2598 22.3014 22.3106C22.3229 22.3615 22.334 22.4161 22.334 22.4714C22.334 22.5267 22.3229 22.5814 22.3014 22.6322C22.2799 22.6831 22.2483 22.7291 22.2087 22.7676C22.169 22.8061 22.122 22.8361 22.0705 22.856C22.019 22.8759 21.964 22.8854 21.9088 22.8837H9.5956ZM6.71773 26.6383H5.3048V28.051H6.71773V26.6383ZM4.89276 25.8137H7.13017C7.23945 25.8137 7.34426 25.8572 7.42153 25.9345C7.4988 26.0117 7.54221 26.1165 7.54221 26.2258V28.4635C7.54221 28.5728 7.4988 28.6775 7.42153 28.7548C7.34426 28.8321 7.23945 28.8755 7.13017 28.8755H4.89276C4.83862 28.8755 4.785 28.865 4.73496 28.8443C4.68492 28.8236 4.63945 28.7932 4.60115 28.7549C4.56285 28.7167 4.53246 28.6712 4.51173 28.6213C4.491 28.5712 4.48033 28.5177 4.48033 28.4635V26.2258C4.48033 26.1716 4.491 26.1181 4.51173 26.068C4.53246 26.018 4.56285 25.9726 4.60115 25.9343C4.63945 25.8961 4.68492 25.8657 4.73496 25.845C4.785 25.8243 4.83862 25.8137 4.89276 25.8137ZM6.71773 31.4301H5.3048V32.8413H6.71773V31.4301ZM4.89276 30.6056H7.13017C7.23949 30.6057 7.34429 30.6492 7.42155 30.7265C7.49881 30.8039 7.54221 30.9086 7.54221 31.018V33.2553C7.54221 33.3646 7.4988 33.4694 7.42153 33.5467C7.34426 33.6239 7.23945 33.6674 7.13017 33.6674H4.89276C4.83862 33.6674 4.785 33.6568 4.73496 33.6361C4.68492 33.6154 4.63945 33.585 4.60115 33.5468C4.56285 33.5085 4.53246 33.4631 4.51173 33.4131C4.491 33.3631 4.48033 33.3095 4.48033 33.2553V31.018C4.48033 30.9086 4.52378 30.8037 4.60113 30.7264C4.67847 30.649 4.78338 30.6056 4.89276 30.6056ZM12.3551 14.6049C12.2479 14.6015 12.1463 14.5567 12.0718 14.4797C11.9972 14.4028 11.9555 14.2998 11.9555 14.1926C11.9555 14.0855 11.9972 13.9826 12.0718 13.9056C12.1463 13.8287 12.2479 13.7838 12.3551 13.7804H21.9088C21.964 13.7787 22.019 13.7881 22.0705 13.8081C22.122 13.828 22.169 13.858 22.2087 13.8965C22.2483 13.935 22.2799 13.981 22.3014 14.0318C22.3229 14.0827 22.334 14.1374 22.334 14.1926C22.334 14.2478 22.3229 14.3025 22.3014 14.3535C22.2799 14.4043 22.2483 14.4503 22.2087 14.4888C22.169 14.5272 22.122 14.5573 22.0705 14.5772C22.019 14.5972 21.964 14.6066 21.9088 14.6049H12.3551ZM12.3551 12.1615C12.2479 12.1583 12.1463 12.1134 12.0718 12.0364C11.9972 11.9595 11.9555 11.8565 11.9555 11.7493C11.9555 11.6422 11.9972 11.5392 12.0718 11.4623C12.1463 11.3854 12.2479 11.3405 12.3551 11.3371H21.9088C21.964 11.3354 22.019 11.3448 22.0705 11.3647C22.122 11.3847 22.169 11.4148 22.2087 11.4532C22.2483 11.4917 22.2799 11.5377 22.3014 11.5886C22.3229 11.6394 22.334 11.6941 22.334 11.7493C22.334 11.8046 22.3229 11.8593 22.3014 11.9101C22.2799 11.9609 22.2483 12.0071 22.2087 12.0454C22.169 12.0839 22.122 12.1141 22.0705 12.134C22.019 12.1539 21.964 12.1633 21.9088 12.1615H12.3551ZM12.3551 17.0482C12.2479 17.0448 12.1463 16.9999 12.0718 16.923C11.9972 16.846 11.9555 16.7431 11.9555 16.636C11.9555 16.5288 11.9972 16.4258 12.0718 16.3489C12.1463 16.2719 12.2479 16.2271 12.3551 16.2238H21.9088C21.964 16.222 22.019 16.2314 22.0705 16.2514C22.122 16.2713 22.169 16.3014 22.2087 16.3398C22.2483 16.3783 22.2799 16.4243 22.3014 16.4751C22.3229 16.5261 22.334 16.5808 22.334 16.636C22.334 16.6912 22.3229 16.7459 22.3014 16.7968C22.2799 16.8476 22.2483 16.8936 22.2087 16.9321C22.169 16.9706 22.122 17.0006 22.0705 17.0205C22.019 17.0405 21.964 17.0499 21.9088 17.0482H12.3551ZM28.7754 4.82604C28.4051 4.8273 28.0503 4.97496 27.7884 5.2368C27.5266 5.49863 27.3789 5.8534 27.3777 6.2237V11.3379H30.1735V6.2237C30.1723 5.85299 30.0243 5.49786 29.7619 5.23596C29.4995 4.97405 29.1441 4.82667 28.7734 4.82604H28.7754ZM26.5532 11.7499V38.6087L24.713 37.6948C24.6542 37.6658 24.5894 37.6513 24.5238 37.6523C24.4583 37.6535 24.394 37.6702 24.3362 37.7011L21.968 38.8131L19.9938 37.7539C19.9285 37.7188 19.855 37.702 19.781 37.7052C19.707 37.7085 19.6352 37.7317 19.5733 37.7723L17.8488 38.8259L15.6086 38.144C15.5266 38.1188 15.4388 38.1202 15.3577 38.1479L13.3344 38.8372L10.7877 37.9383C10.7341 37.9193 10.6772 37.9118 10.6205 37.9159C10.5639 37.9201 10.5087 37.9361 10.4585 37.9627L8.68752 38.8239L6.69933 38.0483C6.59869 38.0089 6.48657 38.0108 6.3873 38.0535L3.81026 39.1668L1.82368 38.912V6.71372C1.82473 6.21334 2.02402 5.73375 2.3779 5.37996C2.73179 5.02616 3.21144 4.82699 3.71185 4.82604H27.0504C26.7287 5.22077 26.553 5.71446 26.5532 6.2237V11.7499ZM28.7754 4C29.365 4.00084 29.9302 4.23537 30.3472 4.6522C30.7642 5.06901 30.9989 5.63413 31 6.2237V11.7499C31 11.8593 30.9565 11.9642 30.8792 12.0416C30.8019 12.1189 30.697 12.1623 30.5876 12.1623H27.3777V39.2728C27.3776 39.3821 27.3341 39.4869 27.2567 39.5642C27.1794 39.6415 27.0745 39.6848 26.9652 39.6848C26.8916 39.685 26.8193 39.6652 26.756 39.6276L24.5246 38.5215L22.1284 39.6464C22.0704 39.6735 22.0069 39.6867 21.9429 39.6849C21.879 39.683 21.8163 39.6663 21.7599 39.6359L19.8122 38.5907L18.1188 39.6236C18.066 39.656 18.0066 39.6759 17.945 39.682C17.8834 39.688 17.8213 39.6802 17.7632 39.6588L15.4946 38.9684L13.4624 39.6624C13.3753 39.6926 13.2806 39.6926 13.1935 39.6624L10.6733 38.7732L8.88394 39.6416C8.83309 39.6662 8.77768 39.68 8.72122 39.6822C8.66476 39.6843 8.60847 39.6748 8.55591 39.6539L6.55772 38.8763L4.03428 39.9664C3.95655 40 3.87032 40.0087 3.78746 39.9912L1.36003 39.6816C1.26068 39.6694 1.16925 39.6211 1.10294 39.5462C1.03663 39.4711 1.00002 39.3745 1 39.2744V6.71372C1.00074 5.99457 1.28663 5.30506 1.79498 4.79635C2.30333 4.28765 2.99267 4.00127 3.71185 4H28.7754Z" fill="white"/>
<path fill-rule="evenodd" clip-rule="evenodd" d="M23.4509 26.8502C22.8009 26.2 21.9455 25.7952 21.0306 25.705C20.1156 25.6146 19.1976 25.8443 18.433 26.355C17.6684 26.8656 17.1046 27.6256 16.8376 28.5054C16.5705 29.3852 16.6168 30.3303 16.9686 31.1797C17.3203 32.0291 17.9557 32.7304 18.7666 33.1638C19.5774 33.5973 20.5135 33.7362 21.4152 33.5569C22.317 33.3777 23.1287 32.8912 23.712 32.1806C24.2954 31.4699 24.6142 30.5789 24.6142 29.6596C24.615 29.1378 24.5126 28.621 24.3129 28.1388C24.1133 27.6567 23.8203 27.2188 23.4509 26.8502ZM18.6352 30.0944C18.5519 30.0274 18.4979 29.9306 18.4849 29.8245C18.4718 29.7184 18.5006 29.6114 18.5653 29.5262C18.6299 29.4411 18.7252 29.3845 18.8309 29.3685C18.9366 29.3525 19.0444 29.3784 19.1313 29.4407L20.319 30.3428L22.0792 28.1495C22.112 28.1047 22.1537 28.0671 22.2015 28.0389C22.2493 28.0106 22.3023 27.9924 22.3574 27.9852C22.4125 27.978 22.4684 27.9821 22.5219 27.9971C22.5753 28.0121 22.6252 28.0379 22.6684 28.0726C22.7117 28.1075 22.7474 28.1507 22.7735 28.1998C22.7996 28.2487 22.8155 28.3025 22.8203 28.3578C22.825 28.4132 22.8185 28.4689 22.8012 28.5216C22.7838 28.5744 22.7559 28.623 22.7192 28.6647L20.709 31.1696C20.6422 31.2529 20.5455 31.3069 20.4394 31.3199C20.3334 31.333 20.2265 31.3042 20.1414 31.2396L18.6352 30.0944ZM9.5944 32.4677C9.53919 32.4694 9.48419 32.46 9.43267 32.4401C9.38115 32.4201 9.33416 32.39 9.2945 32.3516C9.25483 32.3131 9.22329 32.2671 9.20176 32.2162C9.18022 32.1654 9.16912 32.1107 9.16912 32.0555C9.16912 32.0002 9.18022 31.9456 9.20176 31.8947C9.22329 31.8437 9.25483 31.7977 9.2945 31.7594C9.33416 31.7209 9.38115 31.6907 9.43267 31.6708C9.48419 31.6509 9.53919 31.6415 9.5944 31.6433H16.2718C15.9897 31.02 15.8438 30.3437 15.8438 29.6596C15.8438 28.9754 15.9897 28.2991 16.2718 27.6758H9.5956C9.54039 27.6775 9.48539 27.6682 9.43387 27.6483C9.38235 27.6283 9.33536 27.5982 9.2957 27.5597C9.25603 27.5213 9.22449 27.4753 9.20296 27.4244C9.18142 27.3736 9.17032 27.3189 9.17032 27.2636C9.17032 27.2084 9.18142 27.1537 9.20296 27.1029C9.22449 27.052 9.25603 27.0059 9.2957 26.9675C9.33536 26.9291 9.38235 26.8989 9.43387 26.879C9.48539 26.8591 9.54039 26.8498 9.5956 26.8514H16.7515C17.3452 26.0296 18.1841 25.4171 19.1476 25.1018C20.1112 24.7866 21.15 24.7848 22.1146 25.0968C23.0793 25.4089 23.9202 26.0185 24.5167 26.8383C25.1132 27.6581 25.4345 28.6457 25.4345 29.6596C25.4345 30.6734 25.1132 31.661 24.5167 32.4808C23.9202 33.3006 23.0793 33.9103 22.1146 34.2222C21.15 34.5343 20.1112 34.5325 19.1476 34.2173C18.1841 33.9019 17.3452 33.2895 16.7515 32.4677H9.5944ZM7.28259 14.542C6.77821 14.5418 6.29186 14.3545 5.91761 14.0164C5.54335 13.6783 5.30779 13.2134 5.25648 12.7117C5.20517 12.2099 5.34176 11.707 5.63983 11.3002C5.9379 10.8933 6.37627 10.6114 6.87015 10.5091V9.74465C6.86843 9.68944 6.87782 9.63445 6.89776 9.58294C6.9177 9.53141 6.94779 9.48443 6.98624 9.44476C7.02469 9.40511 7.07072 9.37356 7.12159 9.35203C7.17246 9.3305 7.22714 9.31939 7.28239 9.31939C7.33763 9.31939 7.39231 9.3305 7.44318 9.35203C7.49405 9.37356 7.54008 9.40511 7.57853 9.44476C7.61698 9.48443 7.64707 9.53141 7.66701 9.58294C7.68696 9.63445 7.69635 9.68944 7.69463 9.74465V10.5091C8.15359 10.6044 8.56573 10.8548 8.86174 11.2183C9.15775 11.5818 9.31957 12.0361 9.31998 12.5048C9.31664 12.6119 9.27174 12.7135 9.1948 12.788C9.11785 12.8626 9.0149 12.9044 8.90774 12.9044C8.80058 12.9044 8.69762 12.8626 8.62068 12.788C8.54373 12.7135 8.49884 12.6119 8.4955 12.5048C8.4955 12.2649 8.42436 12.0304 8.29109 11.831C8.15781 11.6315 7.96838 11.4761 7.74675 11.3843C7.52512 11.2925 7.28124 11.2684 7.04596 11.3152C6.81068 11.362 6.59456 11.4775 6.42493 11.6472C6.2553 11.8168 6.13978 12.0329 6.09298 12.2682C6.04618 12.5034 6.0702 12.7473 6.162 12.9689C6.2538 13.1906 6.40927 13.3799 6.60873 13.5132C6.80819 13.6465 7.04269 13.7176 7.28259 13.7176C7.78716 13.7175 8.27383 13.9046 8.64835 14.2428C9.02288 14.5808 9.2586 15.0459 9.30989 15.5479C9.36118 16.0498 9.22437 16.5529 8.92597 16.9598C8.62757 17.3666 8.1888 17.6483 7.69463 17.7502V18.5151C7.69129 18.6222 7.64639 18.7238 7.56945 18.7984C7.4925 18.8729 7.38955 18.9146 7.28239 18.9146C7.17523 18.9146 7.07227 18.8729 6.99533 18.7984C6.91838 18.7238 6.87348 18.6222 6.87015 18.5151V17.7502C6.41132 17.6548 5.99932 17.4044 5.7034 17.0411C5.40748 16.6777 5.24568 16.2236 5.2452 15.7549C5.24348 15.6997 5.25287 15.6448 5.27281 15.5932C5.29275 15.5417 5.32284 15.4947 5.36129 15.4551C5.39974 15.4154 5.44577 15.3839 5.49664 15.3623C5.54751 15.3408 5.60219 15.3296 5.65743 15.3296C5.71268 15.3296 5.76736 15.3408 5.81823 15.3623C5.8691 15.3839 5.91513 15.4154 5.95358 15.4551C5.99203 15.4947 6.02212 15.5417 6.04206 15.5932C6.062 15.6448 6.07139 15.6997 6.06967 15.7549C6.06967 15.9949 6.14081 16.2293 6.27409 16.4288C6.40736 16.6282 6.59679 16.7837 6.81842 16.8755C7.04006 16.9673 7.28393 16.9913 7.51921 16.9445C7.7545 16.8977 7.97062 16.7821 8.14025 16.6126C8.30987 16.4429 8.42539 16.2268 8.47219 15.9916C8.51899 15.7562 8.49497 15.5125 8.40317 15.2908C8.31137 15.0692 8.15591 14.8798 7.95644 14.7464C7.75698 14.6132 7.52248 14.542 7.28259 14.542ZM6.71773 21.8464H5.3048V23.2592H6.71773V21.8464ZM4.89276 21.0219H7.13017C7.18428 21.0219 7.23786 21.0326 7.28785 21.0533C7.33784 21.074 7.38327 21.1044 7.42153 21.1426C7.45979 21.1809 7.49014 21.2263 7.51085 21.2763C7.53155 21.3263 7.54221 21.3799 7.54221 21.434V23.6713C7.54221 23.7806 7.49881 23.8854 7.42155 23.9628C7.34429 24.0401 7.23949 24.0836 7.13017 24.0837H4.89276C4.78338 24.0837 4.67847 24.0403 4.60113 23.9629C4.52378 23.8856 4.48033 23.7806 4.48033 23.6713V21.434C4.48033 21.3798 4.491 21.3262 4.51173 21.2762C4.53246 21.2262 4.56285 21.1808 4.60115 21.1425C4.63945 21.1043 4.68492 21.0739 4.73496 21.0532C4.785 21.0325 4.83862 21.0219 4.89276 21.0219ZM9.5956 22.8837C9.54039 22.8854 9.48539 22.8759 9.43387 22.856C9.38235 22.8361 9.33536 22.8061 9.2957 22.7676C9.25603 22.7291 9.22449 22.6831 9.20296 22.6322C9.18142 22.5814 9.17032 22.5267 9.17032 22.4714C9.17032 22.4161 9.18142 22.3615 9.20296 22.3106C9.22449 22.2598 9.25603 22.2137 9.2957 22.1753C9.33536 22.1368 9.38235 22.1068 9.43387 22.0868C9.48539 22.0668 9.54039 22.0575 9.5956 22.0592H21.9088C21.964 22.0575 22.019 22.0668 22.0705 22.0868C22.122 22.1068 22.169 22.1368 22.2087 22.1753C22.2483 22.2137 22.2799 22.2598 22.3014 22.3106C22.3229 22.3615 22.334 22.4161 22.334 22.4714C22.334 22.5267 22.3229 22.5814 22.3014 22.6322C22.2799 22.6831 22.2483 22.7291 22.2087 22.7676C22.169 22.8061 22.122 22.8361 22.0705 22.856C22.019 22.8759 21.964 22.8854 21.9088 22.8837H9.5956ZM6.71773 26.6383H5.3048V28.051H6.71773V26.6383ZM4.89276 25.8137H7.13017C7.23945 25.8137 7.34426 25.8572 7.42153 25.9345C7.4988 26.0117 7.54221 26.1165 7.54221 26.2258V28.4635C7.54221 28.5728 7.4988 28.6775 7.42153 28.7548C7.34426 28.8321 7.23945 28.8755 7.13017 28.8755H4.89276C4.83862 28.8755 4.785 28.865 4.73496 28.8443C4.68492 28.8236 4.63945 28.7932 4.60115 28.7549C4.56285 28.7167 4.53246 28.6712 4.51173 28.6213C4.491 28.5712 4.48033 28.5177 4.48033 28.4635V26.2258C4.48033 26.1716 4.491 26.1181 4.51173 26.068C4.53246 26.018 4.56285 25.9726 4.60115 25.9343C4.63945 25.8961 4.68492 25.8657 4.73496 25.845C4.785 25.8243 4.83862 25.8137 4.89276 25.8137ZM6.71773 31.4301H5.3048V32.8413H6.71773V31.4301ZM4.89276 30.6056H7.13017C7.23949 30.6057 7.34429 30.6492 7.42155 30.7265C7.49881 30.8039 7.54221 30.9086 7.54221 31.018V33.2553C7.54221 33.3646 7.4988 33.4694 7.42153 33.5467C7.34426 33.6239 7.23945 33.6674 7.13017 33.6674H4.89276C4.83862 33.6674 4.785 33.6568 4.73496 33.6361C4.68492 33.6154 4.63945 33.585 4.60115 33.5468C4.56285 33.5085 4.53246 33.4631 4.51173 33.4131C4.491 33.3631 4.48033 33.3095 4.48033 33.2553V31.018C4.48033 30.9086 4.52378 30.8037 4.60113 30.7264C4.67847 30.649 4.78338 30.6056 4.89276 30.6056ZM12.3551 14.6049C12.2479 14.6015 12.1463 14.5567 12.0718 14.4797C11.9972 14.4028 11.9555 14.2998 11.9555 14.1926C11.9555 14.0855 11.9972 13.9826 12.0718 13.9056C12.1463 13.8287 12.2479 13.7838 12.3551 13.7804H21.9088C21.964 13.7787 22.019 13.7881 22.0705 13.8081C22.122 13.828 22.169 13.858 22.2087 13.8965C22.2483 13.935 22.2799 13.981 22.3014 14.0318C22.3229 14.0827 22.334 14.1374 22.334 14.1926C22.334 14.2478 22.3229 14.3025 22.3014 14.3535C22.2799 14.4043 22.2483 14.4503 22.2087 14.4888C22.169 14.5272 22.122 14.5573 22.0705 14.5772C22.019 14.5972 21.964 14.6066 21.9088 14.6049H12.3551ZM12.3551 12.1615C12.2479 12.1583 12.1463 12.1134 12.0718 12.0364C11.9972 11.9595 11.9555 11.8565 11.9555 11.7493C11.9555 11.6422 11.9972 11.5392 12.0718 11.4623C12.1463 11.3854 12.2479 11.3405 12.3551 11.3371H21.9088C21.964 11.3354 22.019 11.3448 22.0705 11.3647C22.122 11.3847 22.169 11.4148 22.2087 11.4532C22.2483 11.4917 22.2799 11.5377 22.3014 11.5886C22.3229 11.6394 22.334 11.6941 22.334 11.7493C22.334 11.8046 22.3229 11.8593 22.3014 11.9101C22.2799 11.9609 22.2483 12.0071 22.2087 12.0454C22.169 12.0839 22.122 12.1141 22.0705 12.134C22.019 12.1539 21.964 12.1633 21.9088 12.1615H12.3551ZM12.3551 17.0482C12.2479 17.0448 12.1463 16.9999 12.0718 16.923C11.9972 16.846 11.9555 16.7431 11.9555 16.636C11.9555 16.5288 11.9972 16.4258 12.0718 16.3489C12.1463 16.2719 12.2479 16.2271 12.3551 16.2238H21.9088C21.964 16.222 22.019 16.2314 22.0705 16.2514C22.122 16.2713 22.169 16.3014 22.2087 16.3398C22.2483 16.3783 22.2799 16.4243 22.3014 16.4751C22.3229 16.5261 22.334 16.5808 22.334 16.636C22.334 16.6912 22.3229 16.7459 22.3014 16.7968C22.2799 16.8476 22.2483 16.8936 22.2087 16.9321C22.169 16.9706 22.122 17.0006 22.0705 17.0205C22.019 17.0405 21.964 17.0499 21.9088 17.0482H12.3551ZM28.7754 4.82604C28.4051 4.8273 28.0503 4.97496 27.7884 5.2368C27.5266 5.49863 27.3789 5.8534 27.3777 6.2237V11.3379H30.1735V6.2237C30.1723 5.85299 30.0243 5.49786 29.7619 5.23596C29.4995 4.97405 29.1441 4.82667 28.7734 4.82604H28.7754ZM26.5532 11.7499V38.6087L24.713 37.6948C24.6542 37.6658 24.5894 37.6513 24.5238 37.6523C24.4583 37.6535 24.394 37.6702 24.3362 37.7011L21.968 38.8131L19.9938 37.7539C19.9285 37.7188 19.855 37.702 19.781 37.7052C19.707 37.7085 19.6352 37.7317 19.5733 37.7723L17.8488 38.8259L15.6086 38.144C15.5266 38.1188 15.4388 38.1202 15.3577 38.1479L13.3344 38.8372L10.7877 37.9383C10.7341 37.9193 10.6772 37.9118 10.6205 37.9159C10.5639 37.9201 10.5087 37.9361 10.4585 37.9627L8.68752 38.8239L6.69933 38.0483C6.59869 38.0089 6.48657 38.0108 6.3873 38.0535L3.81026 39.1668L1.82368 38.912V6.71372C1.82473 6.21334 2.02402 5.73375 2.3779 5.37996C2.73179 5.02616 3.21144 4.82699 3.71185 4.82604H27.0504C26.7287 5.22077 26.553 5.71446 26.5532 6.2237V11.7499ZM28.7754 4C29.365 4.00084 29.9302 4.23537 30.3472 4.6522C30.7642 5.06901 30.9989 5.63413 31 6.2237V11.7499C31 11.8593 30.9565 11.9642 30.8792 12.0416C30.8019 12.1189 30.697 12.1623 30.5876 12.1623H27.3777V39.2728C27.3776 39.3821 27.3341 39.4869 27.2567 39.5642C27.1794 39.6415 27.0745 39.6848 26.9652 39.6848C26.8916 39.685 26.8193 39.6652 26.756 39.6276L24.5246 38.5215L22.1284 39.6464C22.0704 39.6735 22.0069 39.6867 21.9429 39.6849C21.879 39.683 21.8163 39.6663 21.7599 39.6359L19.8122 38.5907L18.1188 39.6236C18.066 39.656 18.0066 39.6759 17.945 39.682C17.8834 39.688 17.8213 39.6802 17.7632 39.6588L15.4946 38.9684L13.4624 39.6624C13.3753 39.6926 13.2806 39.6926 13.1935 39.6624L10.6733 38.7732L8.88394 39.6416C8.83309 39.6662 8.77768 39.68 8.72122 39.6822C8.66476 39.6843 8.60847 39.6748 8.55591 39.6539L6.55772 38.8763L4.03428 39.9664C3.95655 40 3.87032 40.0087 3.78746 39.9912L1.36003 39.6816C1.26068 39.6694 1.16925 39.6211 1.10294 39.5462C1.03663 39.4711 1.00002 39.3745 1 39.2744V6.71372C1.00074 5.99457 1.28663 5.30506 1.79498 4.79635C2.30333 4.28765 2.99267 4.00127 3.71185 4H28.7754Z" stroke="white" stroke-width="0.6" mask="url(#path-2-outside-1_7118_29295)"/>
</svg>
